# xmcd
#
# Track frame offsets: 
#        150
#        17783
#        34591
#        47034
#        63664
#        72646
#        91807
#        110406
#        145300
#
# Disc length: 2551 seconds
#
# Revision: 2
# Processed by: cddbd v1.5.2PL0 Copyright (c) Steve Scherf et al.
# Submitted via: ExactAudioCopy v1.0b3
#
DISCID=7e09f509
DTITLE=Dustin Kensrue - Please Come Home
DYEAR=2006
DGENRE=Rock
TTITLE0=I Knew You Before
TTITLE1=Pistol
TTITLE2=I Believe
TTITLE3=Please Come Home
TTITLE4=Blood and Wine
TTITLE5=Consider The Ravens
TTITLE6=Weary Saints
TTITLE7=Blanket Of Ghosts
TTITLE8=DATA
EXTD=YEAR: 2006
EXTT0=
EXTT1=
EXTT2=
EXTT3=
EXTT4=
EXTT5=
EXTT6=
EXTT7=
EXTT8=
PLAYORDER=
